<?xml version="1.0" encoding="UTF-8"?>
<svg width="512" height="512" version="1.1" viewBox="0 0 512 512" xmlns="http://www.w3.org/2000/svg">
 <path d="m256 2c-32.297 0-63.766 3.9766-93.75 11.484-23.566 5.9141-46.426 14.223-67.922 24.727-35.246 17.246-67.051 40.855-93.75 69.023-26.699 28.168-47.723 61.125-61.875 96.875-14.152 35.75-21.484 73.84-21.484 112.89 0 39.051 7.332 77.141 21.484 112.89 14.152 35.75 35.176 68.707 61.875 96.875 26.699 28.168 58.504 51.777 93.75 69.023 21.496 10.504 44.355 18.812 67.922 24.727 29.984 7.5078 61.453 11.484 93.75 11.484s63.766-3.9766 93.75-11.484c23.566-5.9141 46.426-14.223 67.922-24.727 35.246-17.246 67.051-40.855 93.75-69.023 26.699-28.168 47.723-61.125 61.875-96.875 14.152-35.75 21.484-73.84 21.484-112.89 0-39.051-7.332-77.141-21.484-112.89-14.152-35.75-35.176-68.707-61.875-96.875-26.699-28.168-58.504-51.777-93.75-69.023-21.496-10.504-44.355-18.812-67.922-24.727-29.984-7.5078-61.453-11.484-93.75-11.484zm0 41.797c27.621 0 54.547 3.4023 80.156 9.8242 20.16 5.0508 39.707 12.168 58.086 21.141 30.148 14.746 57.359 34.941 80.156 59.023 22.797 24.082 40.809 52.273 52.93 82.852 12.121 30.578 18.359 63.145 18.359 96.562s-6.2383 65.984-18.359 96.562c-12.121 30.578-30.133 58.77-52.93 82.852-22.797 24.082-50.008 44.277-80.156 59.023-18.379 8.9727-37.926 16.09-58.086 21.141-25.609 6.4219-52.535 9.8242-80.156 9.8242s-54.547-3.4023-80.156-9.8242c-20.16-5.0508-39.707-12.168-58.086-21.141-30.148-14.746-57.359-34.941-80.156-59.023-22.797-24.082-40.809-52.273-52.93-82.852-12.121-30.578-18.359-63.145-18.359-96.562s6.2383-65.984 18.359-96.562c12.121-30.578 30.133-58.77 52.93-82.852 22.797-24.082 50.008-44.277 80.156-59.023 18.379-8.9727 37.926-16.09 58.086-21.141 25.609-6.4219 52.535-9.8242 80.156-9.8242zm0 29.141c-24.945 0-49.273 3.0742-72.422 8.875-18.215 4.5664-35.875 11-52.5 19.109-27.238 13.324-51.824 31.578-72.422 53.328-20.598 21.75-36.875 47.25-47.812 74.844-10.938 27.594-16.594 57.07-16.594 87.234s5.6562 59.641 16.594 87.234c10.938 27.594 27.215 53.094 47.812 74.844 20.598 21.75 45.184 40.004 72.422 53.328 16.625 8.1094 34.285 14.543 52.5 19.109 23.148 5.8008 47.477 8.875 72.422 8.875s49.273-3.0742 72.422-8.875c18.215-4.5664 35.875-11 52.5-19.109 27.238-13.324 51.824-31.578 72.422-53.328 20.598-21.75 36.875-47.25 47.812-74.844 10.938-27.594 16.594-57.07 16.594-87.234s-5.6562-59.641-16.594-87.234c-10.938-27.594-27.215-53.094-47.812-74.844-20.598-21.75-45.184-40.004-72.422-53.328-16.625-8.1094-34.285-14.543-52.5-19.109-23.148-5.8008-47.477-8.875-72.422-8.875zm-0.70312 63.047c4.8438 0 8.7695 3.9258 8.7695 8.7695v15.938c28.07 0.85938 50.617 7.7383 69.117 21.164 20.164 14.617 30.398 35.355 30.398 61.664 0 15.902-3.7578 29.398-11.195 40.195-7.4375 10.797-16.316 19.277-26.477 25.234-10.156 5.9609-24.195 12.559-42.195 19.84l-11.648 4.7188c-14.078 5.75-23.398 11.078-28.078 16.078-4.6797 5-7.0781 11.52-7.0781 19.52v5.9961c0 4.8438-3.9258 8.7695-8.7695 8.7695s-8.7695-3.9258-8.7695-8.7695v-5.9961c0-13.52 4.2383-24.957 12.719-34.316 8.4766-9.3594 21.195-17.324 38.156-23.957l11.648-4.7188c15.84-6.3203 27.758-11.84 35.836-16.598 8.0781-4.7578 14.957-11.277 20.637-19.598 5.6797-8.3164 8.5586-18.516 8.5586-30.598 0-19.84-7.5781-35.277-22.719-46.316-15.137-11.035-33.098-16.562-53.879-16.562-16.398 0-30.957 3.1992-43.676 9.5977-12.719 6.3984-22.52 15.477-29.398 27.238-6.8789 11.758-10.316 25.316-10.316 40.676v95.832c0 4.8438-3.9258 8.7695-8.7695 8.7695s-8.7695-3.9258-8.7695-8.7695v-95.832c0-19.359 4.3984-36.477 13.195-51.355 8.8008-14.879 21.277-26.398 37.438-34.559 16.156-8.1562 34.676-12.238 55.555-12.238v-15.938c0-4.8438 3.9258-8.7695 8.7695-8.7695zm0 229.69c4.8438 0 8.7695 3.9258 8.7695 8.7695v17.539c0 4.8438-3.9258 8.7695-8.7695 8.7695s-8.7695-3.9258-8.7695-8.7695v-17.539c0-4.8438 3.9258-8.7695 8.7695-8.7695z" fill="#00704A"/>
</svg>
